<svg width="108" height="108" viewBox="0 0 108 108" fill="none" xmlns="http://www.w3.org/2000/svg">
<circle cx="54" cy="54" r="54" fill="#0C2788"/>
<path d="M26.008 35.2382H45.976V62.4382H52.12L50.264 71.7822H45.976V81.3182H33.24V71.7822H9.496V62.7582L26.008 35.2382ZM22.104 62.4382H33.24V45.1582H32.408L22.104 62.4382ZM92.802 55.9742V59.3662C92.802 61.8408 92.6527 64.0595 92.354 66.0222C92.098 67.9849 91.6927 69.7555 91.138 71.3342C90.626 72.8702 89.9647 74.2142 89.154 75.3662C88.3433 76.5182 87.4047 77.4995 86.338 78.3102C85.2713 79.1209 84.0553 79.7822 82.69 80.2942C81.3673 80.7635 79.8953 81.1049 78.274 81.3182C76.6953 81.5315 74.9673 81.6382 73.09 81.6382H72.45C70.8287 81.6382 69.314 81.5742 67.906 81.4462C66.5407 81.3182 65.282 81.1475 64.13 80.9342C62.978 80.6782 61.9327 80.3795 60.994 80.0382C60.098 79.6542 59.266 79.2275 58.498 78.7582C57.73 78.2462 57.0473 77.6915 56.45 77.0942C55.8953 76.4542 55.4047 75.7929 54.978 75.1102C54.5513 74.3849 54.1673 73.5955 53.826 72.7422C53.5273 71.8888 53.2713 70.9715 53.058 69.9902V69.8622L65.794 68.0702V68.1982C65.9647 68.7102 66.1353 69.1582 66.306 69.5422C66.4767 69.9262 66.69 70.2675 66.946 70.5662C67.202 70.8222 67.5007 71.0355 67.842 71.2062C68.226 71.3768 68.6527 71.5262 69.122 71.6542C69.5913 71.7395 70.1033 71.8035 70.658 71.8462C71.2553 71.8462 71.9593 71.8462 72.77 71.8462H72.962C73.6447 71.8462 74.2847 71.8035 74.882 71.7182C75.4793 71.6329 76.0127 71.5049 76.482 71.3342C76.9513 71.1635 77.378 70.9502 77.762 70.6942C78.146 70.4382 78.466 70.1182 78.722 69.7342C79.0207 69.3502 79.2553 68.9235 79.426 68.4542C79.6393 67.9422 79.7887 67.3875 79.874 66.7902C79.9593 66.1502 80.002 65.4675 80.002 64.7422V62.1822C79.362 62.5662 78.722 62.9075 78.082 63.2062C77.4847 63.5048 76.8447 63.7822 76.162 64.0382C75.522 64.2515 74.818 64.4435 74.05 64.6142C73.3247 64.7849 72.4927 64.9129 71.554 64.9982C70.658 65.0408 69.6553 65.0622 68.546 65.0622H68.034C66.5833 65.0622 65.2393 64.9982 64.002 64.8702C62.8073 64.6995 61.698 64.4435 60.674 64.1022C59.6927 63.7608 58.7967 63.3128 57.986 62.7582C57.1753 62.2035 56.4713 61.5635 55.874 60.8382C55.2767 60.0702 54.7647 59.1955 54.338 58.2142C53.954 57.2328 53.6553 56.1448 53.442 54.9502C53.2713 53.7128 53.186 52.3475 53.186 50.8542V50.2142C53.186 48.5928 53.2927 47.1208 53.506 45.7982C53.7193 44.4328 54.0607 43.2168 54.53 42.1502C54.9993 41.0408 55.5967 40.0595 56.322 39.2062C57.0473 38.3528 57.922 37.6275 58.946 37.0302C59.97 36.3902 61.1433 35.8782 62.466 35.4942C63.7887 35.0675 65.282 34.7688 66.946 34.5982C68.61 34.3848 70.4447 34.2782 72.45 34.2782H73.09C75.0527 34.2782 76.8447 34.3848 78.466 34.5982C80.0873 34.8115 81.5807 35.1528 82.946 35.6222C84.3113 36.0915 85.5273 36.7102 86.594 37.4782C87.6607 38.2462 88.578 39.1848 89.346 40.2942C90.114 41.4035 90.754 42.7262 91.266 44.2622C91.778 45.7555 92.162 47.4835 92.418 49.4462C92.674 51.3662 92.802 53.5422 92.802 55.9742ZM79.682 50.0862C79.682 49.4462 79.6393 48.8702 79.554 48.3582C79.4687 47.8035 79.3407 47.3342 79.17 46.9502C78.9993 46.5235 78.786 46.1608 78.53 45.8622C78.274 45.5635 77.954 45.3075 77.57 45.0942C77.2287 44.8808 76.8233 44.7315 76.354 44.6462C75.9273 44.5182 75.4153 44.4328 74.818 44.3902C74.2633 44.3048 73.6447 44.2622 72.962 44.2622H72.706C71.9807 44.2622 71.3193 44.3048 70.722 44.3902C70.1673 44.4328 69.6553 44.5182 69.186 44.6462C68.7593 44.7315 68.354 44.8808 67.97 45.0942C67.6287 45.2648 67.33 45.4995 67.074 45.7982C66.818 46.0968 66.6047 46.4595 66.434 46.8862C66.2633 47.2702 66.1353 47.7395 66.05 48.2942C66.0073 48.8062 65.986 49.3822 65.986 50.0222V50.7902C65.986 51.4302 66.0073 52.0062 66.05 52.5182C66.1353 52.9875 66.242 53.4355 66.37 53.8622C66.5407 54.2462 66.754 54.5875 67.01 54.8862C67.266 55.1848 67.5647 55.4408 67.906 55.6542C68.2473 55.8675 68.6527 56.0382 69.122 56.1662C69.5913 56.2515 70.1247 56.3368 70.722 56.4222C71.3193 56.4648 71.9807 56.4862 72.706 56.4862H72.962C73.6447 56.4862 74.2633 56.4648 74.818 56.4222C75.4153 56.3368 75.9487 56.2515 76.418 56.1662C76.8873 56.0382 77.2927 55.8675 77.634 55.6542C78.018 55.4408 78.338 55.1848 78.594 54.8862C78.85 54.5875 79.0633 54.2462 79.234 53.8622C79.4047 53.4355 79.5327 52.9875 79.618 52.5182C79.7033 52.0062 79.746 51.4302 79.746 50.7902L79.682 50.0862Z" fill="#FF4027"/>
<path d="M29.008 31.92H48.976V59.12H55.12L53.264 68.464H48.976V78H36.24V68.464H12.496V59.44L29.008 31.92ZM25.104 59.12H36.24V41.84H35.408L25.104 59.12ZM95.802 52.656V56.048C95.802 58.5227 95.6527 60.7413 95.354 62.704C95.098 64.6667 94.6927 66.4373 94.138 68.016C93.626 69.552 92.9647 70.896 92.154 72.048C91.3433 73.2 90.4047 74.1813 89.338 74.992C88.2713 75.8027 87.0553 76.464 85.69 76.976C84.3673 77.4453 82.8953 77.7867 81.274 78C79.6953 78.2133 77.9673 78.32 76.09 78.32H75.45C73.8287 78.32 72.314 78.256 70.906 78.128C69.5407 78 68.282 77.8293 67.13 77.616C65.978 77.36 64.9327 77.0613 63.994 76.72C63.098 76.336 62.266 75.9093 61.498 75.44C60.73 74.928 60.0473 74.3733 59.45 73.776C58.8953 73.136 58.4047 72.4747 57.978 71.792C57.5513 71.0667 57.1673 70.2773 56.826 69.424C56.5273 68.5707 56.2713 67.6533 56.058 66.672V66.544L68.794 64.752V64.88C68.9647 65.392 69.1353 65.84 69.306 66.224C69.4767 66.608 69.69 66.9493 69.946 67.248C70.202 67.504 70.5007 67.7173 70.842 67.888C71.226 68.0587 71.6527 68.208 72.122 68.336C72.5913 68.4213 73.1033 68.4853 73.658 68.528C74.2553 68.528 74.9593 68.528 75.77 68.528H75.962C76.6447 68.528 77.2847 68.4853 77.882 68.4C78.4793 68.3147 79.0127 68.1867 79.482 68.016C79.9513 67.8453 80.378 67.632 80.762 67.376C81.146 67.12 81.466 66.8 81.722 66.416C82.0207 66.032 82.2553 65.6053 82.426 65.136C82.6393 64.624 82.7887 64.0693 82.874 63.472C82.9593 62.832 83.002 62.1493 83.002 61.424V58.864C82.362 59.248 81.722 59.5893 81.082 59.888C80.4847 60.1867 79.8447 60.464 79.162 60.72C78.522 60.9333 77.818 61.1253 77.05 61.296C76.3247 61.4667 75.4927 61.5947 74.554 61.68C73.658 61.7227 72.6553 61.744 71.546 61.744H71.034C69.5833 61.744 68.2393 61.68 67.002 61.552C65.8073 61.3813 64.698 61.1253 63.674 60.784C62.6927 60.4427 61.7967 59.9947 60.986 59.44C60.1753 58.8853 59.4713 58.2453 58.874 57.52C58.2767 56.752 57.7647 55.8773 57.338 54.896C56.954 53.9147 56.6553 52.8267 56.442 51.632C56.2713 50.3947 56.186 49.0293 56.186 47.536V46.896C56.186 45.2747 56.2927 43.8027 56.506 42.48C56.7193 41.1147 57.0607 39.8987 57.53 38.832C57.9993 37.7227 58.5967 36.7413 59.322 35.888C60.0473 35.0347 60.922 34.3093 61.946 33.712C62.97 33.072 64.1433 32.56 65.466 32.176C66.7887 31.7493 68.282 31.4507 69.946 31.28C71.61 31.0667 73.4447 30.96 75.45 30.96H76.09C78.0527 30.96 79.8447 31.0667 81.466 31.28C83.0873 31.4933 84.5807 31.8347 85.946 32.304C87.3113 32.7733 88.5273 33.392 89.594 34.16C90.6607 34.928 91.578 35.8667 92.346 36.976C93.114 38.0853 93.754 39.408 94.266 40.944C94.778 42.4373 95.162 44.1653 95.418 46.128C95.674 48.048 95.802 50.224 95.802 52.656ZM82.682 46.768C82.682 46.128 82.6393 45.552 82.554 45.04C82.4687 44.4853 82.3407 44.016 82.17 43.632C81.9993 43.2053 81.786 42.8427 81.53 42.544C81.274 42.2453 80.954 41.9893 80.57 41.776C80.2287 41.5627 79.8233 41.4133 79.354 41.328C78.9273 41.2 78.4153 41.1147 77.818 41.072C77.2633 40.9867 76.6447 40.944 75.962 40.944H75.706C74.9807 40.944 74.3193 40.9867 73.722 41.072C73.1673 41.1147 72.6553 41.2 72.186 41.328C71.7593 41.4133 71.354 41.5627 70.97 41.776C70.6287 41.9467 70.33 42.1813 70.074 42.48C69.818 42.7787 69.6047 43.1413 69.434 43.568C69.2633 43.952 69.1353 44.4213 69.05 44.976C69.0073 45.488 68.986 46.064 68.986 46.704V47.472C68.986 48.112 69.0073 48.688 69.05 49.2C69.1353 49.6693 69.242 50.1173 69.37 50.544C69.5407 50.928 69.754 51.2693 70.01 51.568C70.266 51.8667 70.5647 52.1227 70.906 52.336C71.2473 52.5493 71.6527 52.72 72.122 52.848C72.5913 52.9333 73.1247 53.0187 73.722 53.104C74.3193 53.1467 74.9807 53.168 75.706 53.168H75.962C76.6447 53.168 77.2633 53.1467 77.818 53.104C78.4153 53.0187 78.9487 52.9333 79.418 52.848C79.8873 52.72 80.2927 52.5493 80.634 52.336C81.018 52.1227 81.338 51.8667 81.594 51.568C81.85 51.2693 82.0633 50.928 82.234 50.544C82.4047 50.1173 82.5327 49.6693 82.618 49.2C82.7033 48.688 82.746 48.112 82.746 47.472L82.682 46.768Z" fill="#EAE7FA"/>
</svg>
