<svg xmlns="http://www.w3.org/2000/svg" xmlns:xlink="http://www.w3.org/1999/xlink" width="1080" zoomAndPan="magnify" viewBox="0 0 810 809.999993" height="1080" preserveAspectRatio="xMidYMid meet" version="1.0"><path fill="#003973" d="M 1184.09375 935.953125 C 1178.503906 927.339844 1169.464844 923.035156 1156.96875 923.035156 C 1144.46875 923.035156 1135.492188 927.3125 1130.03125 935.859375 C 1124.574219 944.414062 1121.851562 958.546875 1121.851562 978.28125 C 1121.851562 998.140625 1124.574219 1012.414062 1130.03125 1021.097656 C 1135.492188 1029.78125 1144.472656 1034.121094 1156.96875 1034.121094 C 1169.46875 1034.121094 1178.507812 1029.753906 1184.09375 1021 C 1189.683594 1012.246094 1192.480469 998.011719 1192.480469 978.285156 C 1192.480469 958.675781 1189.683594 944.570312 1184.09375 935.953125 Z M 1245.757812 1062.730469 C 1224.179688 1083.25 1194.582031 1093.511719 1156.96875 1093.511719 C 1119.347656 1093.511719 1089.71875 1083.25 1068.078125 1062.730469 C 1046.4375 1042.210938 1035.621094 1014.058594 1035.621094 978.277344 C 1035.621094 942.753906 1046.40625 914.769531 1067.984375 894.320312 C 1089.550781 873.867188 1119.210938 863.636719 1156.96875 863.636719 C 1194.71875 863.636719 1224.347656 873.867188 1245.855469 894.320312 C 1267.363281 914.773438 1278.121094 942.753906 1278.121094 978.277344 C 1278.117188 1014.058594 1267.332031 1042.210938 1245.757812 1062.730469 Z M 937.445312 930.328125 C 932.320312 925.464844 924.820312 923.035156 914.957031 923.035156 C 902.589844 923.035156 893.511719 927.46875 887.722656 936.351562 C 881.9375 945.230469 879.046875 959.207031 879.046875 978.28125 C 879.046875 997.617188 881.835938 1011.753906 887.425781 1020.703125 C 893.019531 1029.652344 901.933594 1034.117188 914.164062 1034.117188 C 924.035156 1034.117188 931.757812 1031.421875 937.351562 1026.027344 C 942.941406 1020.632812 946.261719 1012.679688 947.316406 1002.152344 L 1032.554688 1002.152344 C 1030.710938 1030.4375 1019.433594 1052.730469 998.71875 1069.035156 C 978 1085.347656 950.46875 1093.507812 916.140625 1093.507812 C 878.125 1093.507812 848.070312 1083.179688 825.972656 1062.527344 C 803.875 1041.875 792.820312 1013.785156 792.820312 978.273438 C 792.820312 942.75 803.742188 914.765625 825.582031 894.316406 C 847.414062 873.863281 877.339844 863.632812 915.359375 863.632812 C 949.816406 863.632812 977.574219 871.695312 998.625 887.800781 C 1019.671875 903.917969 1030.71875 925.589844 1031.769531 952.816406 L 946.53125 952.816406 C 945.597656 942.695312 942.574219 935.195312 937.445312 930.328125 Z M 697.695312 915.730469 C 692.769531 911.917969 686.550781 910.003906 679.054688 910.003906 C 671.554688 910.003906 665.828125 911.292969 661.886719 913.855469 C 657.945312 916.417969 655.964844 920.136719 655.964844 925 C 655.964844 933.558594 665.636719 939.863281 684.972656 943.945312 C 690.105469 945 693.980469 945.789062 696.613281 946.3125 C 735.546875 955.261719 760.867188 964.761719 772.574219 974.820312 C 784.285156 984.882812 790.136719 999.65625 790.136719 1019.125 C 790.136719 1043.71875 780.566406 1062.265625 761.429688 1074.765625 C 742.289062 1087.265625 713.976562 1093.511719 676.484375 1093.511719 C 641.757812 1093.511719 615.28125 1087.261719 597.066406 1074.765625 C 578.847656 1062.265625 568.820312 1043.460938 566.976562 1018.339844 L 649.851562 1018.339844 C 649.851562 1027.410156 652.1875 1034.1875 656.851562 1038.65625 C 661.523438 1043.132812 668.527344 1045.367188 677.867188 1045.367188 C 686.816406 1045.367188 693.6875 1043.859375 698.488281 1040.832031 C 703.289062 1037.808594 705.691406 1033.402344 705.691406 1027.605469 C 705.691406 1018.003906 695.109375 1010.90625 673.925781 1006.296875 C 672.082031 1005.902344 670.636719 1005.574219 669.585938 1005.3125 C 629.460938 996.765625 603.28125 987.558594 591.050781 977.691406 C 578.820312 967.828125 572.703125 953.355469 572.703125 934.28125 C 572.703125 911.257812 581.679688 893.730469 599.632812 881.695312 C 617.589844 869.664062 643.796875 863.640625 678.257812 863.640625 C 710.222656 863.640625 734.992188 869.296875 752.546875 880.613281 C 770.109375 891.925781 780.203125 908.761719 782.835938 931.121094 L 706.082031 931.121094 C 705.425781 924.679688 702.632812 919.542969 697.695312 915.730469 Z M 468.011719 924.511719 C 461.566406 917.867188 452.296875 914.546875 440.199219 914.546875 C 429.011719 914.546875 420.171875 918.066406 413.652344 925.105469 C 407.148438 932.140625 403.617188 941.910156 403.09375 954.410156 L 479.058594 954.410156 C 478.144531 941.121094 474.460938 931.15625 468.011719 924.511719 Z M 403.09375 997.417969 C 403.492188 1011.101562 407.105469 1021.660156 413.949219 1029.089844 C 420.789062 1036.519531 430.328125 1040.238281 442.5625 1040.238281 C 450.847656 1040.238281 457.75 1038.691406 463.277344 1035.59375 C 468.808594 1032.507812 472.554688 1028.0625 474.527344 1022.277344 L 556.214844 1022.277344 C 550.292969 1045.695312 537.300781 1063.417969 517.242188 1075.457031 C 497.183594 1087.492188 470.710938 1093.511719 437.824219 1093.511719 C 400.992188 1093.511719 371.757812 1083.28125 350.113281 1062.828125 C 328.480469 1042.375 317.660156 1014.847656 317.660156 980.253906 C 317.660156 944.214844 328.707031 915.761719 350.8125 894.914062 C 372.914062 874.0625 402.964844 863.636719 440.980469 863.636719 C 479.125 863.636719 509.019531 874.980469 530.65625 897.671875 C 552.289062 920.359375 563.113281 951.832031 563.113281 992.089844 L 563.113281 997.222656 Z M 219.886719 1085.816406 L 219.886719 974.722656 C 219.886719 958.417969 217.714844 947.203125 213.371094 941.082031 C 209.03125 934.964844 201.535156 931.90625 190.882812 931.90625 C 180.097656 931.90625 172.074219 935.460938 166.808594 942.5625 C 161.546875 949.667969 158.914062 960.519531 158.914062 975.125 L 158.914062 1085.816406 L 73.671875 1085.816406 L 73.671875 871.335938 L 151.226562 871.335938 L 151.226562 902.707031 C 161.222656 890.207031 172.367188 880.90625 184.671875 874.785156 C 196.964844 868.671875 210.878906 865.609375 226.402344 865.609375 C 239.425781 865.609375 251.0625 867.777344 261.324219 872.121094 C 271.582031 876.460938 280.265625 882.90625 287.363281 891.460938 C 293.8125 899.21875 298.382812 908.660156 301.082031 919.769531 C 303.777344 930.886719 305.125 949.074219 305.125 974.328125 L 305.125 1085.8125 L 219.886719 1085.8125 Z M -38.808594 994.15625 C -38.878906 992.652344 -39.035156 991.296875 -39.300781 990.117188 C -47.453125 993.269531 -58.304688 996.628906 -71.855469 1000.179688 C -93.167969 1005.835938 -103.820312 1013.398438 -103.820312 1022.867188 C -103.820312 1028.917969 -101.714844 1033.652344 -97.507812 1037.070312 C -93.296875 1040.5 -87.3125 1042.207031 -79.546875 1042.207031 C -65.34375 1042.207031 -54.984375 1038.914062 -48.46875 1032.339844 C -41.964844 1025.765625 -38.710938 1015.308594 -38.710938 1000.96875 C -38.710938 997.941406 -38.742188 995.675781 -38.808594 994.15625 Z M -31.40625 1085.816406 L -36.730469 1065.292969 C -47.652344 1074.894531 -59.417969 1082 -72.054688 1086.601562 C -84.679688 1091.207031 -98.886719 1093.511719 -114.671875 1093.511719 C -138.875 1093.511719 -157.585938 1087.558594 -170.808594 1075.652344 C -184.027344 1063.746094 -190.636719 1046.945312 -190.636719 1025.238281 C -190.636719 1004.066406 -184.125 988.410156 -171.101562 978.28125 C -158.078125 968.148438 -133.480469 960.78125 -97.304688 956.179688 C -92.703125 955.519531 -86.523438 954.800781 -78.753906 954.011719 C -51.792969 951.113281 -38.3125 944.144531 -38.3125 933.09375 C -38.3125 926.90625 -40.773438 922.410156 -45.703125 919.574219 C -50.640625 916.753906 -58.425781 915.335938 -69.082031 915.335938 C -77.902344 915.335938 -84.671875 917.078125 -89.40625 920.5625 C -94.148438 924.046875 -96.910156 929.410156 -97.695312 936.644531 L -180.96875 936.644531 C -180.574219 912.574219 -170.710938 894.390625 -151.371094 882.085938 C -132.035156 869.785156 -103.628906 863.636719 -66.132812 863.636719 C -48.507812 863.636719 -32.226562 865.285156 -17.304688 868.574219 C -2.371094 871.859375 9.242188 876.265625 17.527344 881.792969 C 27.652344 888.636719 34.757812 896.359375 38.835938 904.972656 C 42.910156 913.589844 44.953125 925.917969 44.953125 941.96875 L 44.953125 1061.546875 C 44.953125 1065.492188 45.742188 1069.007812 47.320312 1072.105469 C 48.902344 1075.191406 51.203125 1077.722656 54.226562 1079.695312 L 54.226562 1085.816406 Z M -301.238281 970.382812 C -307.425781 966.3125 -317.816406 964.261719 -332.417969 964.261719 L -374.839844 964.261719 L -374.839844 1017.9375 L -331.625 1017.9375 C -317.292969 1017.9375 -307.09375 1015.832031 -301.042969 1011.625 C -294.996094 1007.417969 -291.972656 1000.507812 -291.972656 990.90625 C -291.972656 981.304688 -295.058594 974.464844 -301.238281 970.382812 Z M -309.722656 866.398438 C -315.378906 862.851562 -328.46875 861.078125 -348.992188 861.078125 L -374.839844 861.078125 L -374.839844 911.195312 L -336.367188 911.195312 C -323.476562 911.195312 -314.398438 909.285156 -309.136719 905.46875 C -303.882812 901.65625 -301.238281 895.210938 -301.238281 886.132812 C -301.238281 876.53125 -304.074219 869.957031 -309.722656 866.398438 Z M -249.550781 930.722656 C -234.15625 936.253906 -222.78125 944.539062 -215.40625 955.589844 C -208.042969 966.640625 -204.355469 980.980469 -204.355469 998.605469 C -204.355469 1015.835938 -207.945312 1030.796875 -215.113281 1043.492188 C -222.289062 1056.1875 -232.714844 1065.957031 -246.386719 1072.792969 C -255.601562 1077.523438 -266.121094 1080.875 -277.957031 1082.855469 C -289.792969 1084.828125 -309.398438 1085.8125 -336.761719 1085.8125 L -465.410156 1085.8125 L -465.410156 795.171875 L -346.234375 795.171875 C -320.578125 795.171875 -301.902344 795.828125 -290.1875 797.144531 C -278.488281 798.457031 -268.421875 800.628906 -260.007812 803.648438 C -245.273438 809.175781 -233.992188 817.789062 -226.160156 829.5 C -218.339844 841.207031 -214.417969 855.410156 -214.417969 872.117188 C -214.417969 885.277344 -217.351562 896.75 -223.203125 906.546875 C -229.058594 916.351562 -237.839844 924.414062 -249.550781 930.722656 Z M -249.550781 930.722656 " fill-opacity="1" fill-rule="nonzero"/><path fill="#ff2115" d="M 407.246094 795.160156 C 216.699219 795.160156 62.242188 712.726562 62.242188 611.042969 C 62.242188 535.980469 146.46875 471.445312 267.195312 442.785156 C 266.347656 447.308594 265.71875 451.917969 265.292969 456.570312 C 211.371094 476.191406 176.625 506.84375 176.625 541.308594 C 176.625 600.539062 279.058594 648.546875 405.414062 648.546875 C 531.773438 648.546875 634.207031 600.535156 634.207031 541.308594 C 634.207031 507.160156 600.117188 476.765625 547.054688 457.132812 C 546.621094 452.089844 545.957031 447.113281 545.015625 442.238281 C 666.960938 470.625 752.246094 535.503906 752.246094 611.042969 C 752.246094 712.726562 597.78125 795.160156 407.246094 795.160156 Z M 407.246094 795.160156 " fill-opacity="1" fill-rule="evenodd"/><path fill="#ff2115" d="M 406.136719 356.871094 C 468.140625 356.871094 518.394531 407.128906 518.394531 469.132812 C 518.394531 531.128906 468.140625 581.382812 406.136719 581.382812 C 344.140625 581.382812 293.882812 531.128906 293.882812 469.132812 C 293.882812 407.128906 344.140625 356.871094 406.136719 356.871094 Z M 406.136719 356.871094 " fill-opacity="1" fill-rule="evenodd"/><path fill="#003973" d="M 534.171875 408.960938 C 511.558594 360.933594 462.75 327.691406 406.15625 327.691406 C 405.917969 327.691406 405.6875 327.707031 405.449219 327.707031 C 402.957031 318.410156 401.605469 308.648438 401.605469 298.574219 C 401.605469 236.570312 451.863281 186.3125 513.859375 186.3125 C 575.863281 186.3125 626.117188 236.570312 626.117188 298.574219 C 626.113281 353.632812 586.460938 399.390625 534.171875 408.960938 Z M 534.171875 408.960938 " fill-opacity="1" fill-rule="evenodd"/><path fill="#007a50" d="M 360.128906 9.875 C 361.917969 10.296875 363.695312 10.765625 365.460938 11.273438 C 367.222656 11.78125 368.976562 12.335938 370.714844 12.929688 C 372.453125 13.527344 374.175781 14.164062 375.882812 14.84375 C 377.585938 15.523438 379.277344 16.246094 380.949219 17.007812 C 382.617188 17.769531 384.269531 18.574219 385.902344 19.417969 C 387.535156 20.261719 389.144531 21.144531 390.734375 22.070312 C 392.320312 22.992188 393.886719 23.953125 395.425781 24.953125 C 396.96875 25.953125 398.484375 26.988281 399.972656 28.0625 C 401.464844 29.136719 402.929688 30.25 404.363281 31.394531 C 405.800781 32.542969 407.207031 33.722656 408.585938 34.9375 C 409.960938 36.152344 411.308594 37.402344 412.625 38.683594 C 413.941406 39.964844 415.226562 41.277344 416.480469 42.621094 C 417.730469 43.964844 418.949219 45.339844 420.132812 46.742188 C 421.320312 48.148438 422.46875 49.578125 423.582031 51.039062 C 424.695312 52.5 425.773438 53.988281 426.816406 55.5 C 427.855469 57.015625 428.859375 58.554688 429.824219 60.117188 C 430.792969 61.679688 431.71875 63.265625 432.605469 64.871094 C 433.496094 66.480469 434.34375 68.109375 435.148438 69.761719 C 435.957031 71.410156 436.726562 73.078125 437.449219 74.765625 C 438.175781 76.453125 438.859375 78.160156 439.503906 79.878906 C 440.144531 81.601562 440.746094 83.335938 441.300781 85.085938 C 441.859375 86.839844 442.375 88.601562 442.84375 90.378906 C 443.316406 92.152344 443.742188 93.941406 444.125 95.738281 C 444.507812 97.535156 444.84375 99.339844 445.140625 101.152344 C 445.433594 102.964844 445.683594 104.785156 445.886719 106.609375 C 446.09375 108.4375 446.253906 110.265625 446.367188 112.101562 C 446.484375 113.933594 446.554688 115.769531 446.578125 117.605469 C 446.601562 119.441406 446.582031 121.277344 446.515625 123.113281 C 446.453125 124.949219 446.339844 126.785156 446.1875 128.613281 C 446.03125 130.445312 445.832031 132.269531 445.585938 134.089844 C 445.339844 135.914062 445.050781 137.726562 444.71875 139.53125 C 444.382812 141.339844 444.003906 143.136719 443.582031 144.925781 C 443.160156 146.710938 442.695312 148.488281 442.1875 150.253906 C 441.675781 152.019531 441.125 153.769531 440.527344 155.507812 C 439.933594 157.246094 439.296875 158.96875 438.617188 160.675781 C 437.9375 162.382812 437.214844 164.070312 436.453125 165.742188 C 435.6875 167.414062 434.886719 169.066406 434.042969 170.695312 C 433.199219 172.328125 432.3125 173.9375 431.390625 175.527344 C 430.46875 177.117188 429.507812 178.679688 428.507812 180.222656 C 427.507812 181.761719 426.46875 183.277344 425.394531 184.769531 C 424.320312 186.257812 423.210938 187.722656 422.066406 189.160156 C 420.917969 190.59375 419.738281 192 418.523438 193.378906 C 417.308594 194.757812 416.058594 196.105469 414.777344 197.421875 C 413.496094 198.738281 412.183594 200.019531 410.839844 201.273438 C 409.496094 202.527344 408.121094 203.742188 406.714844 204.929688 C 405.3125 206.113281 403.878906 207.261719 402.417969 208.375 C 400.957031 209.492188 399.472656 210.570312 397.957031 211.609375 C 396.445312 212.652344 394.90625 213.65625 393.34375 214.621094 C 391.78125 215.585938 390.195312 216.511719 388.585938 217.402344 C 386.976562 218.289062 385.347656 219.136719 383.699219 219.945312 C 382.050781 220.753906 380.378906 221.519531 378.691406 222.246094 C 377.003906 222.972656 375.300781 223.65625 373.578125 224.296875 C 371.859375 224.941406 370.121094 225.539062 368.371094 226.097656 C 366.621094 226.65625 364.859375 227.167969 363.082031 227.640625 C 361.304688 228.109375 359.519531 228.535156 357.722656 228.917969 C 355.925781 229.300781 354.121094 229.640625 352.308594 229.933594 C 350.492188 230.226562 348.675781 230.476562 346.847656 230.683594 C 345.023438 230.886719 343.195312 231.046875 341.359375 231.164062 C 339.527344 231.277344 337.691406 231.347656 335.855469 231.371094 C 334.015625 231.398438 332.179688 231.378906 330.34375 231.3125 C 328.507812 231.246094 326.675781 231.136719 324.84375 230.980469 C 323.015625 230.824219 321.1875 230.625 319.367188 230.378906 C 317.546875 230.136719 315.734375 229.847656 313.925781 229.511719 C 312.121094 229.179688 310.324219 228.800781 308.535156 228.378906 C 306.746094 227.957031 304.96875 227.488281 303.207031 226.980469 C 301.441406 226.472656 299.6875 225.917969 297.949219 225.324219 C 296.214844 224.726562 294.492188 224.089844 292.785156 223.410156 C 291.078125 222.730469 289.386719 222.007812 287.71875 221.246094 C 286.046875 220.484375 284.394531 219.679688 282.761719 218.835938 C 281.128906 217.992188 279.519531 217.109375 277.933594 216.183594 C 276.34375 215.261719 274.777344 214.300781 273.238281 213.300781 C 271.695312 212.300781 270.179688 211.265625 268.691406 210.191406 C 267.199219 209.117188 265.738281 208.003906 264.300781 206.859375 C 262.863281 205.714844 261.457031 204.53125 260.082031 203.316406 C 258.703125 202.101562 257.355469 200.855469 256.039062 199.574219 C 254.722656 198.292969 253.4375 196.976562 252.1875 195.632812 C 250.933594 194.289062 249.714844 192.914062 248.53125 191.511719 C 247.347656 190.105469 246.195312 188.675781 245.082031 187.214844 C 243.96875 185.753906 242.890625 184.265625 241.847656 182.753906 C 240.808594 181.238281 239.804688 179.699219 238.839844 178.136719 C 237.871094 176.574219 236.945312 174.988281 236.058594 173.382812 C 235.171875 171.773438 234.324219 170.144531 233.515625 168.492188 C 232.707031 166.84375 231.941406 165.175781 231.214844 163.488281 C 230.488281 161.800781 229.804688 160.09375 229.160156 158.375 C 228.519531 156.652344 227.917969 154.917969 227.363281 153.167969 C 226.804688 151.414062 226.292969 149.652344 225.820312 147.875 C 225.351562 146.101562 224.921875 144.3125 224.539062 142.515625 C 224.15625 140.71875 223.820312 138.914062 223.523438 137.101562 C 223.230469 135.289062 222.980469 133.46875 222.777344 131.644531 C 222.570312 129.816406 222.410156 127.988281 222.296875 126.15625 C 222.183594 124.320312 222.113281 122.484375 222.085938 120.648438 C 222.0625 118.8125 222.082031 116.976562 222.148438 115.140625 C 222.210938 113.304688 222.324219 111.46875 222.476562 109.640625 C 222.632812 107.808594 222.832031 105.984375 223.078125 104.164062 C 223.324219 102.339844 223.613281 100.527344 223.945312 98.722656 C 224.28125 96.914062 224.660156 95.117188 225.082031 93.328125 C 225.503906 91.542969 225.96875 89.765625 226.480469 88 C 226.988281 86.234375 227.539062 84.484375 228.136719 82.746094 C 228.730469 81.007812 229.367188 79.285156 230.050781 77.578125 C 230.730469 75.871094 231.449219 74.183594 232.214844 72.511719 C 232.976562 70.839844 233.78125 69.1875 234.625 67.558594 C 235.46875 65.925781 236.351562 64.316406 237.273438 62.726562 C 238.195312 61.136719 239.160156 59.574219 240.160156 58.03125 C 241.160156 56.492188 242.195312 54.976562 243.269531 53.484375 C 244.34375 51.996094 245.453125 50.53125 246.601562 49.097656 C 247.746094 47.660156 248.925781 46.253906 250.140625 44.875 C 251.355469 43.496094 252.605469 42.148438 253.886719 40.832031 C 255.167969 39.515625 256.480469 38.234375 257.824219 36.980469 C 259.167969 35.730469 260.542969 34.511719 261.949219 33.324219 C 263.351562 32.140625 264.785156 30.992188 266.246094 29.878906 C 267.707031 28.761719 269.195312 27.683594 270.707031 26.644531 C 272.21875 25.601562 273.757812 24.597656 275.320312 23.632812 C 276.882812 22.667969 278.46875 21.742188 280.078125 20.851562 C 281.6875 19.964844 283.316406 19.117188 284.964844 18.308594 C 286.617188 17.5 288.285156 16.734375 289.972656 16.007812 C 291.660156 15.28125 293.363281 14.597656 295.085938 13.957031 C 296.804688 13.3125 298.542969 12.714844 300.292969 12.15625 C 302.042969 11.601562 303.808594 11.085938 305.582031 10.617188 C 307.359375 10.144531 309.144531 9.71875 310.941406 9.335938 C 312.738281 8.953125 314.542969 8.613281 316.355469 8.320312 C 318.171875 8.027344 319.992188 7.777344 321.816406 7.570312 C 323.640625 7.367188 325.472656 7.207031 327.304688 7.089844 C 329.136719 6.976562 330.972656 6.90625 332.8125 6.882812 C 334.648438 6.855469 336.484375 6.878906 338.320312 6.941406 C 340.15625 7.007812 341.988281 7.117188 343.820312 7.273438 C 345.652344 7.429688 347.476562 7.628906 349.296875 7.875 C 351.117188 8.117188 352.929688 8.40625 354.738281 8.742188 C 356.542969 9.074219 358.339844 9.453125 360.128906 9.875 Z M 360.128906 9.875 " fill-opacity="1" fill-rule="nonzero"/></svg>