<svg xmlns="http://www.w3.org/2000/svg" xmlns:xlink="http://www.w3.org/1999/xlink" width="1080" zoomAndPan="magnify" viewBox="0 0 810 809.999993" height="1080" preserveAspectRatio="xMidYMid meet" version="1.0"><defs><clipPath id="afab6c5d94"><path d="M 2.6875 2.6875 L 807.3125 2.6875 L 807.3125 807.3125 L 2.6875 807.3125 Z M 2.6875 2.6875 " clip-rule="nonzero"/></clipPath><clipPath id="2c8dc5d7e6"><path d="M 405 2.6875 C 182.808594 2.6875 2.6875 182.808594 2.6875 405 C 2.6875 627.191406 182.808594 807.3125 405 807.3125 C 627.191406 807.3125 807.3125 627.191406 807.3125 405 C 807.3125 182.808594 627.191406 2.6875 405 2.6875 Z M 405 2.6875 " clip-rule="nonzero"/></clipPath><clipPath id="216a02f23f"><path d="M 0.6875 0.6875 L 805.3125 0.6875 L 805.3125 805.3125 L 0.6875 805.3125 Z M 0.6875 0.6875 " clip-rule="nonzero"/></clipPath><clipPath id="b8585183e9"><path d="M 403 0.6875 C 180.808594 0.6875 0.6875 180.808594 0.6875 403 C 0.6875 625.191406 180.808594 805.3125 403 805.3125 C 625.191406 805.3125 805.3125 625.191406 805.3125 403 C 805.3125 180.808594 625.191406 0.6875 403 0.6875 Z M 403 0.6875 " clip-rule="nonzero"/></clipPath><clipPath id="593d006ac7"><rect x="0" width="806" y="0" height="806"/></clipPath><clipPath id="caa23bc9c4"><path d="M 0.519531 0.503906 L 121 0.503906 L 121 105 L 0.519531 105 Z M 0.519531 0.503906 " clip-rule="nonzero"/></clipPath><clipPath id="f68a23b1ea"><path d="M 184 0.503906 L 397 0.503906 L 397 104 L 184 104 Z M 184 0.503906 " clip-rule="nonzero"/></clipPath><clipPath id="48a6b85b75"><path d="M 509 36 L 583 36 L 583 134.746094 L 509 134.746094 Z M 509 36 " clip-rule="nonzero"/></clipPath><clipPath id="431a3e59ac"><path d="M 12 135.148438 L 117 135.148438 L 117 240 L 12 240 Z M 12 135.148438 " clip-rule="nonzero"/></clipPath><clipPath id="a6f9cbbab7"><path d="M 143 135.148438 L 234 135.148438 L 234 240 L 143 240 Z M 143 135.148438 " clip-rule="nonzero"/></clipPath><clipPath id="21eedade00"><path d="M 638 170 L 712 170 L 712 271.296875 L 638 271.296875 Z M 638 170 " clip-rule="nonzero"/></clipPath><clipPath id="fee2feca4a"><rect x="0" width="715" y="0" height="276"/></clipPath></defs><g clip-path="url(#afab6c5d94)"><g clip-path="url(#2c8dc5d7e6)"><g transform="matrix(1, 0, 0, 1, 2, 2)"><g clip-path="url(#593d006ac7)"><g clip-path="url(#216a02f23f)"><g clip-path="url(#b8585183e9)"><path fill="#003973" d="M 0.6875 0.6875 L 805.3125 0.6875 L 805.3125 805.3125 L 0.6875 805.3125 Z M 0.6875 0.6875 " fill-opacity="1" fill-rule="nonzero"/></g></g></g></g></g></g><g transform="matrix(1, 0, 0, 1, 47, 269)"><g clip-path="url(#fee2feca4a)"><g clip-path="url(#caa23bc9c4)"><path fill="#ffffff" d="M 13.484375 13.355469 C 13.484375 11.296875 7.828125 5.644531 5.773438 5.644531 L 0.632812 5.644531 L 0.632812 0.503906 L 30.445312 0.503906 L 61.289062 78.125 L 61.804688 78.125 L 94.191406 0.503906 L 120.921875 0.503906 L 120.921875 5.644531 L 115.78125 5.644531 C 113.722656 5.644531 108.070312 11.296875 108.070312 13.355469 L 108.070312 90.464844 C 108.070312 92.519531 114.238281 98.175781 115.78125 98.175781 L 120.921875 98.175781 L 120.921875 103.3125 L 81.339844 103.3125 L 81.339844 98.175781 L 86.480469 98.175781 C 88.535156 98.175781 94.191406 92.519531 94.191406 90.464844 L 94.191406 15.410156 L 57.179688 104.855469 L 19.652344 13.867188 L 19.652344 89.949219 C 19.652344 92.003906 25.820312 97.660156 27.363281 97.660156 L 32.503906 97.660156 L 32.503906 102.800781 L 0.632812 102.800781 L 0.632812 97.660156 L 5.773438 97.660156 C 7.828125 97.660156 13.484375 92.003906 13.484375 89.949219 Z M 13.484375 13.355469 " fill-opacity="1" fill-rule="nonzero"/></g><path fill="#ffffff" d="M 164.617188 59.105469 C 166.671875 48.824219 164.617188 39.570312 153.304688 39.570312 C 139.941406 39.570312 133.773438 50.367188 133.773438 65.789062 C 133.773438 80.695312 143.027344 93.035156 158.445312 93.035156 C 169.757812 93.035156 174.898438 88.921875 179.523438 81.210938 L 183.636719 81.210938 C 179.523438 95.605469 170.269531 104.855469 153.820312 104.855469 C 135.316406 104.855469 123.492188 88.921875 123.492188 70.414062 C 123.492188 48.824219 137.886719 34.945312 155.363281 34.945312 C 165.644531 34.945312 172.839844 38.027344 179.007812 44.199219 L 169.242188 59.105469 Z M 164.617188 59.105469 " fill-opacity="1" fill-rule="nonzero"/><path fill="#ffffff" d="M 298.785156 20.550781 C 303.925781 20.550781 307.523438 16.953125 307.523438 11.8125 C 307.523438 6.671875 303.410156 3.585938 298.785156 3.585938 C 293.644531 3.585938 290.046875 6.671875 290.046875 11.8125 C 290.046875 16.953125 293.644531 20.550781 298.785156 20.550781 " fill-opacity="1" fill-rule="nonzero"/><g clip-path="url(#f68a23b1ea)"><path fill="#ffffff" d="M 392.855469 98.175781 C 390.800781 98.175781 385.660156 93.546875 385.660156 90.976562 L 385.660156 53.964844 C 385.660156 42.65625 377.433594 34.945312 367.152344 34.945312 C 355.332031 34.945312 349.164062 41.628906 340.9375 49.851562 L 338.367188 36.488281 L 317.289062 36.488281 L 317.289062 41.628906 L 321.402344 41.628906 C 323.460938 41.628906 328.601562 46.769531 328.601562 48.824219 L 328.601562 91.492188 C 328.601562 93.546875 323.460938 98.6875 321.402344 98.6875 L 313.179688 98.6875 C 311.121094 98.6875 305.980469 94.0625 305.980469 91.492188 L 305.980469 36.488281 L 282.335938 36.488281 L 282.335938 41.628906 L 286.449219 41.628906 C 288.503906 41.628906 293.644531 46.253906 293.644531 48.308594 L 293.644531 90.976562 C 293.644531 93.035156 288.503906 98.175781 286.449219 98.175781 L 278.738281 98.175781 C 276.679688 98.175781 268.457031 92.003906 266.398438 89.433594 L 230.414062 41.628906 L 255.605469 14.898438 C 257.144531 13.355469 266.914062 5.644531 268.96875 5.644531 L 274.109375 5.644531 L 274.109375 0.503906 L 237.097656 0.503906 L 237.097656 5.644531 L 242.238281 5.644531 C 244.292969 5.644531 249.949219 12.839844 248.40625 14.382812 L 211.910156 55.507812 L 211.910156 13.355469 C 211.910156 11.296875 218.078125 5.644531 219.621094 5.644531 L 224.761719 5.644531 L 224.761719 0.503906 L 184.664062 0.503906 L 184.664062 5.644531 L 189.804688 5.644531 C 191.859375 5.644531 197.515625 11.296875 197.515625 13.355469 L 197.515625 90.464844 C 197.515625 92.519531 191.347656 98.175781 189.804688 98.175781 L 184.664062 98.175781 L 184.664062 103.3125 L 224.761719 103.3125 L 224.761719 98.175781 L 219.621094 98.175781 C 217.5625 98.175781 211.910156 92.519531 211.910156 90.464844 L 211.910156 63.21875 L 222.191406 51.910156 L 257.660156 103.3125 L 353.273438 103.3125 L 353.273438 98.175781 L 349.675781 98.175781 C 347.621094 98.175781 342.480469 93.546875 342.480469 90.976562 L 342.480469 57.050781 C 342.480469 52.421875 354.816406 43.167969 364.070312 43.167969 C 371.265625 43.167969 374.863281 48.308594 374.863281 54.480469 L 374.863281 90.976562 C 374.863281 93.035156 369.722656 98.175781 367.667969 98.175781 L 364.070312 98.175781 L 364.070312 103.3125 L 396.457031 103.3125 L 396.457031 98.175781 Z M 392.855469 98.175781 " fill-opacity="1" fill-rule="nonzero"/></g><path fill="#ffffff" d="M 405.195312 79.667969 C 405.195312 85.835938 414.449219 99.203125 428.839844 99.203125 C 437.066406 99.203125 441.691406 96.117188 441.691406 89.949219 C 441.691406 82.238281 435.007812 80.183594 429.355469 77.613281 C 424.730469 75.554688 421.128906 74.011719 415.476562 71.441406 C 407.25 67.84375 401.597656 62.191406 401.597656 53.449219 C 401.597656 41.628906 408.792969 34.429688 421.644531 34.429688 C 428.839844 34.429688 432.953125 38.027344 438.09375 38.027344 C 440.148438 38.027344 441.179688 37.515625 441.691406 35.972656 L 445.289062 35.972656 L 445.289062 56.535156 L 441.179688 56.535156 C 441.179688 50.878906 433.46875 39.570312 421.128906 39.570312 C 413.417969 39.570312 409.820312 43.167969 409.820312 48.308594 C 409.820312 53.964844 413.933594 56.019531 420.617188 59.105469 C 425.757812 61.160156 429.355469 62.703125 435.007812 65.273438 C 442.207031 67.84375 450.429688 74.011719 450.429688 84.808594 C 450.429688 97.660156 441.691406 104.855469 429.355469 104.855469 C 421.128906 104.855469 415.988281 100.742188 410.335938 100.742188 C 407.765625 100.742188 406.738281 101.257812 405.195312 102.800781 L 402.109375 102.800781 L 402.109375 79.152344 L 405.195312 79.152344 Z M 405.195312 79.667969 " fill-opacity="1" fill-rule="nonzero"/><path fill="#ffffff" d="M 454.03125 69.902344 C 454.03125 50.367188 467.394531 34.945312 484.875 34.945312 C 499.78125 34.945312 508.519531 45.226562 509.035156 58.589844 L 509.546875 63.21875 L 465.339844 66.816406 C 465.339844 80.183594 474.59375 93.546875 489.5 93.546875 C 500.808594 93.546875 505.949219 89.433594 510.0625 81.722656 L 514.175781 81.722656 C 509.546875 96.117188 501.324219 105.371094 485.386719 105.371094 C 466.367188 104.855469 454.03125 88.40625 454.03125 69.902344 M 497.726562 59.105469 C 498.753906 49.851562 497.210938 40.085938 484.359375 40.085938 C 470.480469 40.085938 464.824219 51.394531 464.824219 61.675781 Z M 497.726562 59.105469 " fill-opacity="1" fill-rule="nonzero"/><g clip-path="url(#48a6b85b75)"><path fill="#ffffff" d="M 520.855469 48.824219 C 519.828125 46.769531 513.660156 41.628906 512.117188 41.628906 L 509.035156 41.628906 L 509.035156 36.488281 L 544.503906 36.488281 L 544.503906 41.628906 L 540.390625 41.628906 C 538.335938 41.628906 534.222656 46.253906 534.222656 48.824219 L 549.644531 84.292969 L 565.066406 48.824219 C 565.066406 46.253906 560.953125 41.628906 559.410156 41.628906 L 555.300781 41.628906 L 555.300781 36.488281 L 582.03125 36.488281 L 582.03125 41.628906 L 578.945312 41.628906 C 577.402344 41.628906 572.777344 46.769531 571.234375 48.824219 L 548.617188 100.230469 L 531.652344 137.242188 L 525.484375 134.671875 L 543.476562 98.171875 Z M 520.855469 48.824219 " fill-opacity="1" fill-rule="nonzero"/></g><g clip-path="url(#431a3e59ac)"><path fill="#ffffff" d="M 28.347656 153.261719 C 28.347656 161.484375 34 168.167969 42.742188 171.253906 C 56.105469 185.644531 72.042969 200.554688 85.921875 212.890625 C 90.035156 206.207031 91.0625 199.527344 91.0625 190.785156 C 91.0625 181.535156 84.894531 175.878906 74.613281 175.363281 L 74.613281 170.222656 L 111.109375 170.222656 L 111.109375 175.363281 L 107.511719 175.363281 C 105.457031 175.363281 98.257812 183.589844 98.257812 186.675781 C 97.746094 195.414062 95.6875 206.207031 89.003906 215.460938 C 96.714844 222.144531 103.914062 227.796875 110.082031 231.910156 L 116.25 231.910156 L 116.25 237.050781 L 104.941406 237.050781 C 95.175781 237.050781 87.976562 234.480469 79.238281 226.769531 C 71.015625 234.480469 60.734375 239.109375 45.3125 239.109375 C 28.859375 239.109375 12.925781 226.769531 12.925781 208.777344 C 12.925781 194.386719 20.121094 184.105469 29.375 177.421875 C 24.234375 171.253906 21.148438 165.082031 21.148438 155.832031 C 21.148438 140.921875 30.917969 133.210938 45.824219 133.210938 C 55.078125 133.210938 60.21875 136.296875 64.332031 136.296875 C 66.386719 136.296875 67.929688 136.296875 68.957031 134.238281 L 73.585938 134.238281 L 73.585938 158.402344 L 68.957031 158.402344 C 68.957031 151.71875 58.675781 137.839844 45.3125 137.839844 C 35.03125 138.351562 28.347656 144.007812 28.347656 153.261719 M 23.71875 202.609375 C 23.71875 217.515625 39.140625 231.398438 54.050781 231.398438 C 63.304688 231.398438 70.5 228.828125 76.15625 224.714844 C 61.246094 211.863281 44.796875 195.925781 31.945312 181.019531 C 26.804688 186.160156 23.71875 191.816406 23.71875 202.609375 " fill-opacity="1" fill-rule="nonzero"/></g><g clip-path="url(#a6f9cbbab7)"><path fill="#ffffff" d="M 221.632812 171.253906 C 221.632812 160.457031 209.808594 139.378906 190.273438 139.378906 C 172.28125 139.378906 162 149.148438 159.945312 172.28125 C 159.429688 181.535156 159.429688 189.246094 160.460938 198.496094 C 162 216.488281 174.339844 231.398438 195.414062 231.398438 C 213.40625 231.398438 221.632812 223.6875 228.316406 210.320312 L 233.457031 210.320312 C 226.773438 228.828125 212.378906 239.621094 191.816406 239.621094 C 162.515625 239.621094 143.496094 215.460938 143.496094 186.160156 C 143.496094 156.859375 160.460938 133.210938 189.246094 133.210938 C 200.042969 133.210938 207.238281 137.839844 214.949219 137.839844 C 218.035156 137.839844 219.578125 136.808594 221.117188 135.269531 L 225.746094 135.269531 L 225.746094 171.765625 L 221.632812 171.765625 Z M 221.632812 171.253906 " fill-opacity="1" fill-rule="nonzero"/></g><path fill="#ffffff" d="M 240.652344 204.152344 C 240.652344 182.5625 256.074219 169.195312 273.550781 169.195312 C 291.03125 169.195312 306.453125 182.5625 306.453125 204.152344 C 306.453125 225.742188 291.03125 239.621094 273.550781 239.621094 C 256.074219 239.621094 240.652344 225.742188 240.652344 204.152344 M 293.601562 215.460938 C 294.628906 208.777344 294.628906 199.527344 293.601562 192.84375 C 292.574219 182.046875 286.402344 174.851562 274.066406 174.851562 C 262.242188 174.851562 256.074219 182.046875 254.53125 192.84375 C 253.503906 199.523438 253.503906 208.777344 254.53125 215.460938 C 256.074219 225.742188 261.730469 233.453125 274.066406 233.453125 C 286.402344 232.9375 292.574219 225.742188 293.601562 215.460938 " fill-opacity="1" fill-rule="nonzero"/><path fill="#ffffff" d="M 414.917969 225.226562 C 414.917969 227.285156 420.058594 232.425781 422.113281 232.425781 L 425.199219 232.425781 L 425.199219 237.566406 L 391.785156 237.566406 L 391.785156 232.425781 L 395.382812 232.425781 C 397.441406 232.425781 402.582031 227.796875 402.582031 225.226562 L 402.582031 188.214844 C 402.582031 181.535156 399.496094 177.421875 392.300781 177.421875 C 383.558594 177.421875 372.765625 185.644531 372.765625 190.273438 L 372.765625 225.226562 C 372.765625 227.285156 377.90625 232.425781 379.960938 232.425781 L 383.558594 232.425781 L 383.558594 237.566406 L 349.632812 237.566406 L 349.632812 232.425781 L 353.230469 232.425781 C 355.289062 232.425781 360.429688 227.796875 360.429688 225.226562 L 360.429688 188.214844 C 360.429688 181.535156 356.828125 177.421875 349.632812 177.421875 C 340.894531 177.421875 330.097656 186.160156 330.097656 190.785156 L 330.097656 225.226562 C 330.097656 227.285156 335.238281 232.425781 337.296875 232.425781 L 340.894531 232.425781 L 340.894531 237.566406 L 306.964844 237.566406 L 306.964844 232.425781 L 310.5625 232.425781 C 312.621094 232.425781 317.761719 227.796875 317.761719 225.226562 L 317.761719 182.5625 C 317.761719 180.503906 312.621094 175.363281 310.5625 175.363281 L 306.964844 175.363281 L 306.964844 170.222656 L 327.527344 170.222656 L 330.097656 183.074219 C 337.808594 174.851562 342.4375 168.683594 354.257812 168.683594 C 363 168.683594 370.707031 173.308594 371.738281 182.5625 C 379.960938 174.335938 385.101562 168.683594 396.410156 168.683594 C 406.179688 168.683594 414.402344 175.363281 414.402344 187.703125 L 414.402344 225.226562 Z M 414.917969 225.226562 " fill-opacity="1" fill-rule="nonzero"/><path fill="#ffffff" d="M 444.734375 170.738281 L 446.789062 184.617188 C 452.445312 173.824219 459.640625 169.195312 470.949219 169.195312 C 487.398438 169.195312 497.167969 183.074219 497.167969 203.125 C 497.167969 223.171875 485.859375 239.109375 469.921875 239.109375 C 458.097656 239.109375 451.929688 234.480469 447.304688 225.742188 L 447.304688 257.613281 C 447.304688 259.671875 452.445312 264.8125 454.5 264.8125 L 459.125 264.8125 L 459.125 269.953125 L 423.65625 269.953125 L 423.65625 264.8125 L 428.285156 264.8125 C 430.339844 264.8125 435.480469 260.183594 435.480469 257.613281 L 435.480469 183.074219 C 435.480469 181.019531 430.339844 175.878906 428.285156 175.878906 L 423.65625 175.878906 L 423.65625 170.738281 Z M 447.304688 194.898438 L 447.304688 212.375 C 447.304688 222.65625 455.527344 231.910156 466.835938 231.910156 C 478.148438 231.910156 483.800781 224.714844 484.828125 213.917969 C 485.859375 207.75 485.859375 200.039062 484.828125 193.871094 C 483.289062 183.074219 477.632812 176.394531 467.867188 176.394531 C 456.554688 176.90625 450.386719 184.617188 447.304688 194.898438 " fill-opacity="1" fill-rule="nonzero"/><path fill="#ffffff" d="M 642.132812 232.425781 C 640.074219 232.425781 634.933594 227.796875 634.933594 225.226562 L 634.933594 188.214844 C 634.933594 176.90625 626.710938 169.195312 616.429688 169.195312 C 604.605469 169.195312 598.4375 175.878906 590.210938 184.105469 L 587.640625 170.222656 L 566.566406 170.222656 L 566.566406 175.363281 L 570.675781 175.363281 C 572.734375 175.363281 577.875 180.503906 577.875 182.5625 L 577.875 225.226562 C 577.875 227.285156 572.734375 232.425781 570.675781 232.425781 L 562.453125 232.425781 C 560.394531 232.425781 555.253906 227.796875 555.253906 225.226562 L 555.253906 188.730469 C 555.253906 175.363281 544.460938 168.683594 530.066406 168.683594 C 516.699219 168.683594 508.992188 173.308594 503.335938 178.964844 L 512.074219 192.328125 L 516.699219 192.328125 C 511.5625 181.019531 515.671875 173.824219 526.980469 173.824219 C 538.804688 173.824219 542.917969 178.964844 542.402344 188.730469 L 542.402344 196.957031 L 525.441406 200.554688 C 516.1875 202.609375 503.851562 207.234375 503.851562 220.601562 C 503.851562 231.398438 511.5625 238.59375 520.8125 238.59375 C 530.582031 238.59375 537.777344 230.882812 542.917969 223.6875 L 544.460938 237.050781 L 601.007812 237.050781 L 601.007812 231.910156 L 597.40625 231.910156 C 595.351562 231.910156 590.210938 227.285156 590.210938 224.714844 L 590.210938 190.785156 C 590.210938 186.160156 602.546875 176.90625 611.800781 176.90625 C 619 176.90625 622.597656 182.046875 622.597656 188.214844 L 622.597656 224.714844 C 622.597656 226.769531 617.457031 231.910156 615.398438 231.910156 L 611.289062 231.910156 L 611.289062 237.050781 L 645.214844 237.050781 L 645.214844 231.910156 L 642.132812 231.910156 Z M 542.917969 218.03125 C 540.347656 223.171875 533.152344 229.855469 526.46875 229.855469 C 519.785156 229.855469 515.671875 224.714844 515.671875 219.058594 C 515.671875 212.375 518.242188 207.75 526.980469 205.695312 L 542.917969 201.582031 Z M 542.917969 218.03125 " fill-opacity="1" fill-rule="nonzero"/><g clip-path="url(#21eedade00)"><path fill="#ffffff" d="M 650.355469 183.589844 C 649.328125 181.535156 643.671875 175.878906 641.617188 175.878906 L 638.53125 175.878906 L 638.53125 170.738281 L 674.003906 170.738281 L 674.003906 175.878906 L 669.890625 175.878906 C 667.832031 175.878906 663.722656 180.503906 663.722656 183.074219 L 679.144531 218.546875 L 694.566406 183.074219 C 694.566406 180.503906 690.453125 175.878906 688.910156 175.878906 L 684.796875 175.878906 L 684.796875 170.738281 L 711.527344 170.738281 L 711.527344 175.878906 L 708.445312 175.878906 C 706.902344 175.878906 702.277344 181.019531 700.734375 183.074219 L 678.113281 234.480469 L 661.152344 271.492188 L 654.984375 268.921875 L 672.972656 232.425781 Z M 650.355469 183.589844 " fill-opacity="1" fill-rule="nonzero"/></g></g></g></svg>