<svg xmlns="http://www.w3.org/2000/svg" xmlns:xlink="http://www.w3.org/1999/xlink" width="1080" zoomAndPan="magnify" viewBox="0 0 810 809.999993" height="1080" preserveAspectRatio="xMidYMid meet" version="1.0"><path fill="#1ed660" d="M 624.636719 365.414062 C 507.664062 295.972656 314.71875 289.589844 203.054688 323.464844 C 185.117188 328.902344 166.15625 318.789062 160.726562 300.859375 C 155.292969 282.925781 165.402344 263.980469 183.347656 258.535156 C 311.535156 219.640625 524.617188 227.152344 659.28125 307.054688 C 675.414062 316.628906 680.699219 337.449219 671.140625 353.546875 C 661.570312 369.667969 640.722656 374.988281 624.632812 365.414062 M 620.804688 468.261719 C 612.597656 481.574219 595.183594 485.75 581.886719 477.574219 C 484.371094 417.65625 335.664062 400.292969 220.289062 435.300781 C 205.328125 439.816406 189.523438 431.390625 184.980469 416.460938 C 184.714844 415.574219 184.488281 414.675781 184.3125 413.769531 C 184.132812 412.859375 183.996094 411.945312 183.90625 411.023438 C 183.816406 410.101562 183.773438 409.179688 183.773438 408.253906 C 183.773438 407.328125 183.820312 406.402344 183.914062 405.480469 C 184.003906 404.558594 184.140625 403.644531 184.320312 402.738281 C 184.503906 401.828125 184.730469 400.933594 185 400.046875 C 185.265625 399.160156 185.578125 398.289062 185.933594 397.433594 C 186.289062 396.578125 186.683594 395.742188 187.121094 394.925781 C 187.558594 394.109375 188.035156 393.316406 188.546875 392.546875 C 189.0625 391.777344 189.613281 391.035156 190.203125 390.320312 C 190.789062 389.605469 191.410156 388.917969 192.066406 388.265625 C 192.71875 387.609375 193.40625 386.988281 194.121094 386.398438 C 194.835938 385.8125 195.578125 385.261719 196.347656 384.746094 C 197.117188 384.230469 197.910156 383.753906 198.726562 383.316406 C 199.542969 382.878906 200.378906 382.484375 201.234375 382.128906 C 202.089844 381.773438 202.960938 381.460938 203.847656 381.191406 C 335.644531 341.210938 499.488281 360.570312 611.496094 429.378906 C 624.796875 437.566406 628.980469 454.980469 620.804688 468.261719 M 576.398438 567.035156 C 576.015625 567.667969 575.597656 568.28125 575.152344 568.871094 C 574.707031 569.464844 574.234375 570.03125 573.730469 570.578125 C 573.230469 571.125 572.703125 571.644531 572.152344 572.136719 C 571.597656 572.628906 571.023438 573.09375 570.421875 573.53125 C 569.824219 573.96875 569.207031 574.375 568.566406 574.75 C 567.929688 575.128906 567.273438 575.472656 566.601562 575.785156 C 565.929688 576.09375 565.242188 576.371094 564.542969 576.617188 C 563.84375 576.859375 563.132812 577.070312 562.410156 577.246094 C 561.691406 577.417969 560.964844 577.558594 560.230469 577.660156 C 559.496094 577.761719 558.757812 577.828125 558.019531 577.859375 C 557.277344 577.890625 556.539062 577.882812 555.796875 577.839844 C 555.058594 577.796875 554.320312 577.71875 553.589844 577.605469 C 552.855469 577.488281 552.132812 577.339844 551.414062 577.152344 C 550.695312 576.96875 549.992188 576.746094 549.292969 576.488281 C 548.597656 576.234375 547.917969 575.945312 547.25 575.621094 C 546.582031 575.300781 545.933594 574.945312 545.300781 574.558594 C 460.085938 522.496094 352.828125 510.742188 226.511719 539.582031 C 225.789062 539.746094 225.0625 539.875 224.328125 539.96875 C 223.59375 540.0625 222.855469 540.121094 222.117188 540.140625 C 221.375 540.164062 220.636719 540.148438 219.898438 540.097656 C 219.160156 540.042969 218.425781 539.957031 217.695312 539.832031 C 216.964844 539.710938 216.242188 539.550781 215.527344 539.355469 C 214.8125 539.160156 214.109375 538.933594 213.417969 538.667969 C 212.726562 538.402344 212.050781 538.105469 211.386719 537.777344 C 210.722656 537.445312 210.078125 537.085938 209.453125 536.691406 C 208.824219 536.296875 208.21875 535.875 207.632812 535.421875 C 207.046875 534.96875 206.484375 534.488281 205.949219 533.976562 C 205.410156 533.46875 204.898438 532.9375 204.414062 532.378906 C 203.925781 531.820312 203.46875 531.238281 203.039062 530.632812 C 202.613281 530.03125 202.214844 529.40625 201.847656 528.765625 C 201.480469 528.121094 201.144531 527.460938 200.84375 526.789062 C 200.539062 526.113281 200.269531 525.421875 200.035156 524.722656 C 199.800781 524.019531 199.601562 523.308594 199.4375 522.585938 C 199.269531 521.863281 199.140625 521.136719 199.046875 520.402344 C 198.953125 519.667969 198.894531 518.929688 198.871094 518.1875 C 198.851562 517.449219 198.867188 516.707031 198.917969 515.96875 C 198.96875 515.230469 199.054688 514.496094 199.179688 513.765625 C 199.300781 513.035156 199.460938 512.3125 199.65625 511.597656 C 199.851562 510.882812 200.078125 510.179688 200.34375 509.488281 C 200.605469 508.796875 200.902344 508.117188 201.234375 507.457031 C 201.566406 506.792969 201.925781 506.148438 202.320312 505.519531 C 202.714844 504.894531 203.140625 504.289062 203.59375 503.703125 C 204.046875 503.117188 204.527344 502.554688 205.035156 502.015625 C 205.546875 501.476562 206.078125 500.964844 206.640625 500.480469 C 207.199219 499.996094 207.78125 499.539062 208.386719 499.109375 C 208.988281 498.679688 209.613281 498.285156 210.257812 497.917969 C 210.902344 497.550781 211.558594 497.214844 212.238281 496.914062 C 212.914062 496.609375 213.601562 496.34375 214.304688 496.109375 C 215.007812 495.875 215.722656 495.675781 216.445312 495.511719 C 354.675781 463.925781 473.246094 477.519531 568.894531 535.945312 C 569.527344 536.332031 570.140625 536.746094 570.730469 537.191406 C 571.324219 537.640625 571.890625 538.113281 572.4375 538.613281 C 572.980469 539.117188 573.5 539.644531 573.992188 540.199219 C 574.484375 540.75 574.949219 541.328125 575.386719 541.925781 C 575.824219 542.523438 576.230469 543.140625 576.605469 543.78125 C 576.980469 544.417969 577.324219 545.074219 577.632812 545.746094 C 577.945312 546.417969 578.222656 547.105469 578.464844 547.804688 C 578.710938 548.503906 578.917969 549.214844 579.09375 549.933594 C 579.265625 550.65625 579.40625 551.382812 579.507812 552.113281 C 579.609375 552.847656 579.675781 553.585938 579.707031 554.324219 C 579.734375 555.066406 579.730469 555.804688 579.6875 556.546875 C 579.644531 557.285156 579.566406 558.019531 579.449219 558.75 C 579.335938 559.484375 579.183594 560.207031 578.996094 560.925781 C 578.8125 561.640625 578.589844 562.347656 578.335938 563.042969 C 578.078125 563.738281 577.789062 564.417969 577.46875 565.085938 C 577.144531 565.753906 576.789062 566.402344 576.402344 567.035156 M 409.972656 43.832031 C 209.566406 43.832031 47.09375 206.234375 47.09375 406.570312 C 47.09375 606.925781 209.566406 769.320312 409.976562 769.320312 C 610.394531 769.320312 772.863281 606.925781 772.863281 406.570312 C 772.863281 206.238281 610.398438 43.832031 409.976562 43.832031 " fill-opacity="1" fill-rule="nonzero"/></svg>